#!OML:ASF H:\Dans Jumps\Project 1\Capture day 1\Session 1\subject.ASF
:FULLY-SPECIFIED
:DEGREES
388
root 0.685181 17.692 11.1113 18.2961 0.0566192 -3.17331
lowerback 10.0182 0.745721 -1.35305
upperback 6.57529 0.875805 1.38945
thorax 1.17769 0.367546 2.12027
lowerneck -13.9675 0.686 0.733511
upperneck 11.0523 0.992843 -1.5377
head 5.63602 0.397326 -0.516591
rclavicle 3.27995e-015 -3.97569e-015
rhumerus -32.9997 -17.3482 -74.2206
rradius 25.0794
rwrist 32.6094
rhand -24.0986 -25.9198
rfingers 7.12502
rthumb 2.38216 -55.8863
lclavicle 3.27995e-015 -3.97569e-015
lhumerus -31.9137 0.727386 83.236
lradius 23.0557
lwrist 22.4447
lhand -27.8146 -10.4674
lfingers 7.12502
lthumb -1.2069 19.5089
rfemur -29.2063 -0.578126 21.5423
rtibia 27.1949
rfoot -13.097 -1.6163
rtoes 7.41599
lfemur -29.3045 6.53923 -18.6446
ltibia 29.6673
lfoot -11.1655 5.58278
ltoes -10.2442
389
root 0.679865 17.6906 11.1197 18.2232 0.0962707 -3.18888
lowerback 9.95357 0.747169 -1.3303
upperback 6.56817 0.880217 1.40069
thorax 1.20532 0.370083 2.11933
lowerneck -13.9785 0.693502 0.735319
upperneck 11.079 1.00302 -1.53863
head 5.6464 0.402128 -0.516255
rclavicle 7.40473e-015 -8.94531e-016
rhumerus -32.7829 -17.0343 -74.5239
rradius 25.3021
rwrist 32.3629
rhand -24.1214 -25.9066
rfingers 7.12502
rthumb 2.36015 -55.8733
lclavicle 7.40473e-015 -8.94531e-016
lhumerus -31.7164 0.578707 83.2756
lradius 23.1959
lwrist 22.5654
lhand -27.77 -10.4082
lfingers 7.12502
lthumb -1.16377 19.5683
rfemur -29.0454 -0.579933 21.5814
rtibia 27.1232
rfoot -13.1456 -1.65458
rtoes 7.38715
lfemur -29.1758 6.55332 -18.6074
ltibia 29.6368
lfoot -11.212 5.60712
ltoes -10.254
390
root 0.674581 17.6889 11.1279 18.1552 0.129453 -3.21032
lowerback 9.88218 0.75049 -1.30763
upperback 6.55919 0.887097 1.41391
thorax 1.23458 0.373806 2.12032
lowerneck -13.9872 0.698615 0.736204
upperneck 11.1051 1.00969 -1.53613
head 5.65614 0.405456 -0.515002
rclavicle -5.56597e-015 -2.48481e-015
rhumerus -32.575 -16.7284 -74.8131
rradius 25.5303
rwrist 32.1096
rhand -24.124 -25.904
rfingers 7.12502
rthumb 2.35764 -55.8707
lclavicle -5.56597e-015 -2.48481e-015
lhumerus -31.5384 0.42885 83.3268
lradius 23.3515
lwrist 22.6738
lhand -27.7361 -10.3229
lfingers 7.12502
lthumb -1.13106 19.6538
rfemur -28.8902 -0.578473 21.6264
rtibia 27.0504
rfoot -13.1975 -1.68955
rtoes 7.37112
lfemur -29.0519 6.57147 -18.5663
ltibia 29.6067
lfoot -11.261 5.6413
ltoes -10.2625
391
root 0.669348 17.6868 11.136 18.0898 0.154988 -3.22621
lowerback 9.81042 0.755453 -1.29575
upperback 6.54618 0.895295 1.42583
thorax 1.25967 0.377957 2.12591
lowerneck -13.9875 0.699507 0.729894
upperneck 11.1265 1.0108 -1.52455
head 5.66287 0.406523 -0.510223
rclavicle -1.59028e-015 -3.8763e-015
rhumerus -32.3799 -16.4258 -75.0884
rradius 25.7615
rwrist 31.8337
rhand -24.1364 -25.8971
rfingers 7.12502
rthumb 2.34565 -55.864
lclavicle -1.59028e-015 -3.8763e-015
lhumerus -31.3879 0.271106 83.3902
lradius 23.5287
lwrist 22.7762
lhand -27.72 -10.2556
lfingers 7.12502
lthumb -1.11549 19.7212
rfemur -28.7399 -0.579259 21.6652
rtibia 26.9798
rfoot -13.2559 -1.71931
rtoes 7.36818
lfemur -28.9288 6.59133 -18.5339
ltibia 29.5758
lfoot -11.3124 5.68593
ltoes -10.2852
392
root 0.664305 17.6844 11.1437 18.0276 0.178779 -3.244
lowerback 9.74233 0.760554 -1.28105
upperback 6.52726 0.903856 1.43741
thorax 1.2766 0.382507 2.12945
lowerneck -13.9794 0.700497 0.720181
upperneck 11.1425 1.01243 -1.51116
head 5.66645 0.40789 -0.504295
rclavicle -1.00386e-014 -1.59028e-015
rhumerus -32.1955 -16.1392 -75.3458
rradius 25.9836
rwrist 31.5365
rhand -24.1449 -25.8846
rfingers 7.12502
rthumb 2.33743 -55.8515
lclavicle -1.00386e-014 -1.59028e-015
lhumerus -31.2689 0.103205 83.4654
lradius 23.7333
lwrist 22.8743
lhand -27.7139 -10.1965
lfingers 7.12502
lthumb -1.10962 19.7804
rfemur -28.596 -0.587868 21.708
rtibia 26.9123
rfoot -13.3211 -1.74133
rtoes 7.38151
lfemur -28.8092 6.61031 -18.5011
ltibia 29.5439
lfoot -11.3637 5.7388
ltoes -10.3222
393
root 0.659413 17.6816 11.1513 17.9667 0.196742 -3.25779
lowerback 9.67307 0.766539 -1.27109
upperback 6.50579 0.913223 1.44684
thorax 1.29147 0.387395 2.13338
lowerneck -13.964 0.700139 0.7044
upperneck 11.1505 1.01286 -1.49411
head 5.66624 0.408755 -0.496346
rclavicle -4.62174e-015 -1.39149e-015
rhumerus -32.0159 -15.87 -75.586
rradius 26.1909
rwrist 31.2225
rhand -24.1601 -25.8681
rfingers 7.12502
rthumb 2.32277 -55.8352
lclavicle -4.62174e-015 -1.39149e-015
lhumerus -31.1789 -0.0624035 83.5469
lradius 23.9664
lwrist 22.9592
lhand -27.712 -10.1485
lfingers 7.12502
lthumb -1.1078 19.8283
rfemur -28.4565 -0.605994 21.748
rtibia 26.8477
rfoot -13.3934 -1.75169
rtoes 7.41589
lfemur -28.6887 6.62685 -18.4735
ltibia 29.5099
lfoot -11.4155 5.80051
ltoes -10.3669
394
root 0.654663 17.6787 11.1586 17.9059 0.209473 -3.26766
lowerback 9.60388 0.773499 -1.264
upperback 6.48502 0.923634 1.45265
thorax 1.30702 0.392771 2.1351
lowerneck -13.9563 0.700588 0.691678
upperneck 11.1554 1.01419 -1.48058
head 5.66637 0.409902 -0.489907
rclavicle -1.21756e-014 -2.5345e-015
rhumerus -31.8353 -15.6257 -75.8133
rradius 26.3833
rwrist 30.9073
rhand -24.1717 -25.8711
rfingers 7.12502
rthumb 2.31155 -55.8383
lclavicle -1.21756e-014 -2.5345e-015
lhumerus -31.1065 -0.225812 83.6323
lradius 24.2205
lwrist 23.0324
lhand -27.712 -10.1169
lfingers 7.12502
lthumb -1.10774 19.86
rfemur -28.3204 -0.635123 21.7861
rtibia 26.7859
rfoot -13.4724 -1.7496
rtoes 7.46944
lfemur -28.567 6.63902 -18.45
ltibia 29.4741
lfoot -11.4674 5.86969
ltoes -10.4255
395
root 0.64994 17.6754 11.1655 17.8455 0.214906 -3.27709
lowerback 9.53143 0.78129 -1.26035
upperback 6.46856 0.934865 1.45617
thorax 1.32882 0.398393 2.1364
lowerneck -13.9638 0.702805 0.687272
upperneck 11.1581 1.0172 -1.47442
head 5.66847 0.411606 -0.486964
rclavicle 8.29926e-015 1.26725e-014
rhumerus -31.6481 -15.4023 -76.0309
rradius 26.5635
rwrist 30.6032
rhand -24.1907 -25.8835
rfingers 7.12502
rthumb 2.29323 -55.8509
lclavicle 8.29926e-015 1.26725e-014
lhumerus -31.0337 -0.373179 83.7165
lradius 24.4699
lwrist 23.0908
lhand -27.7072 -10.1054
lfingers 7.12502
lthumb -1.10315 19.8715
rfemur -28.1883 -0.671583 21.8258
rtibia 26.7253
rfoot -13.5561 -1.73491
rtoes 7.54962
lfemur -28.4452 6.6502 -18.4269
ltibia 29.437
lfoot -11.5198 5.94465
ltoes -10.495
396
root 0.645329 17.6721 11.172 17.7899 0.214406 -3.27902
lowerback 9.45484 0.789298 -1.26487
upperback 6.45276 0.945814 1.45601
thorax 1.35355 0.403661 2.13859
lowerneck -13.9719 0.704639 0.691782
upperneck 11.1508 1.01955 -1.48072
head 5.6676 0.41246 -0.489458
rclavicle -7.45443e-016 8.84592e-015
rhumerus -31.4606 -15.2045 -76.2369
rradius 26.7366
rwrist 30.332
rhand -24.205 -25.9132
rfingers 7.12502
rthumb 2.27941 -55.8808
lclavicle -7.45443e-016 8.84592e-015
lhumerus -30.9577 -0.496395 83.797
lradius 24.706
lwrist 23.127
lhand -27.7018 -10.0879
lfingers 7.12502
lthumb -1.09789 19.8891
rfemur -28.0645 -0.723393 21.8603
rtibia 26.6653
rfoot -13.6412 -1.70288
rtoes 7.64501
lfemur -28.3281 6.65816 -18.4122
ltibia 29.398
lfoot -11.5755 6.02095
ltoes -10.5523
397
root 0.640689 17.6685 11.1777 17.7356 0.213101 -3.28705
lowerback 9.38278 0.797331 -1.26431
upperback 6.43577 0.957128 1.4569
thorax 1.37462 0.409286 2.13894
lowerneck -13.9802 0.705932 0.699749
upperneck 11.139 1.02136 -1.49364
head 5.66539 0.412711 -0.49465
rclavicle -7.45443e-016 4.12478e-015
rhumerus -31.2732 -15.0391 -76.4293
rradius 26.8999
rwrist 30.1098
rhand -24.2258 -25.9482
rfingers 7.12502
rthumb 2.25927 -55.916
lclavicle -7.45443e-016 4.12478e-015
lhumerus -30.873 -0.59653 83.8746
lradius 24.9118
lwrist 23.1474
lhand -27.6923 -10.1138
lfingers 7.12502
lthumb -1.0887 19.8632
rfemur -27.9446 -0.781431 21.9041
rtibia 26.604
rfoot -13.7259 -1.66206
rtoes 7.7712
lfemur -28.2146 6.66374 -18.3887
ltibia 29.3572
lfoot -11.6333 6.09538
ltoes -10.5919
398
root 0.636195 17.665 11.183 17.6829 0.211901 -3.2947
lowerback 9.31166 0.805257 -1.26196
upperback 6.41641 0.968434 1.45783
thorax 1.39273 0.415008 2.13832
lowerneck -13.9815 0.705164 0.698371
upperneck 11.1234 1.02195 -1.5046
head 5.66074 0.412166 -0.49783
rclavicle -3.926e-015 3.67752e-015
rhumerus -31.0952 -14.8931 -76.6077
rradius 27.0578
rwrist 29.9271
rhand -24.2456 -25.982
rfingers 7.12502
rthumb 2.24016 -55.95
lclavicle -3.926e-015 3.67752e-015
lhumerus -30.7787 -0.671455 83.9506
lradius 25.0819
lwrist 23.1464
lhand -27.683 -10.1365
lfingers 7.12502
lthumb -1.07973 19.8405
rfemur -27.8273 -0.852195 21.9501
rtibia 26.5417
rfoot -13.8134 -1.60956
rtoes 7.91832
lfemur -28.1018 6.66674 -18.3643
ltibia 29.313
lfoot -11.6979 6.16568
ltoes -10.5945
399
root 0.631873 17.6616 11.188 17.6294 0.211134 -3.30378
lowerback 9.2444 0.813655 -1.25514
upperback 6.39551 0.980649 1.45908
thorax 1.40715 0.421362 2.13538
lowerneck -13.9794 0.704207 0.692744
upperneck 11.1095 1.0236 -1.51857
head 5.65611 0.411727 -0.501186
rclavicle -9.93923e-015 -1.12313e-014
rhumerus -30.9248 -14.761 -76.777
rradius 27.2147
rwrist 29.772
rhand -24.2786 -26.0068
rfingers 7.12502
rthumb 2.20834 -55.9751
lclavicle -9.93923e-015 -1.12313e-014
lhumerus -30.672 -0.727182 84.0269
lradius 25.2139
lwrist 23.1279
lhand -27.6663 -10.1505
lfingers 7.12502
lthumb -1.06359 19.8266
rfemur -27.7099 -0.931536 21.9985
rtibia 26.4787
rfoot -13.9023 -1.54731
rtoes 8.08239
lfemur -27.9869 6.6694 -18.3371
ltibia 29.2654
lfoot -11.7685 6.2301
ltoes -10.5738
